<?xml version="1.0" encoding="utf-8"?>
<!-- Generator: Adobe Illustrator 16.0.0, SVG Export Plug-In . SVG Version: 6.00 Build 0)  -->
<!DOCTYPE svg PUBLIC "-//W3C//DTD SVG 1.1//EN" "http://www.w3.org/Graphics/SVG/1.1/DTD/svg11.dtd">
<svg version="1.1" id="Layer_1" xmlns="http://www.w3.org/2000/svg" xmlns:xlink="http://www.w3.org/1999/xlink" x="0px" y="0px"
	 width="1080px" height="1080px" viewBox="0 0 1080 1080" enable-background="new 0 0 1080 1080" xml:space="preserve">
<rect fill="#FDD600" width="1080" height="1080"/>
<g>
	<defs>
		<rect id="SVGID_1_" width="1080" height="1080"/>
	</defs>
	<clipPath id="SVGID_2_">
		<use xlink:href="#SVGID_1_"  overflow="visible"/>
	</clipPath>
	<path clip-path="url(#SVGID_2_)" fill="#1B1720" d="M738.05,353.979h0.236v-38.528H341.789v38.528h0.109
		c0.953,10.359,9.159,85.308,52.54,161.794c4.481,7.899,9.442,15.967,14.914,24.082c-5.472,8.116-10.433,16.184-14.914,24.083
		c-43.811,77.244-51.746,152.92-52.566,162.081h-0.158v38.529h396.472V726.02h-0.109c-0.819-9.161-8.754-84.837-52.565-162.081
		c-4.48-7.899-9.442-15.967-14.913-24.083c5.471-8.115,10.433-16.183,14.913-24.082C728.893,439.287,737.098,364.338,738.05,353.979
		 M697.373,353.979c-0.828,6.835-2.929,21.379-7.546,40.457l-0.002-0.067c-59.744,1.26-109.117,13.721-149.85,32.662
		c-40.732-18.941-90.105-31.402-149.85-32.662l-0.001,0.072c-4.619-19.08-6.719-33.626-7.548-40.462H697.373z M430.293,497.023
		c-12.085-21.11-21.201-42.284-28.064-61.738c33.632,1.739,64.679,7.476,93.101,17.15c-23.544,16.113-43.302,34.416-59.841,53.364
		C433.726,502.917,431.994,499.994,430.293,497.023 M539.974,472.057c30.74,16.909,57.61,39.52,80.491,67.799
		c-22.881,28.28-49.751,50.892-80.491,67.8c-30.738-16.908-57.608-39.52-80.49-67.8
		C482.366,511.577,509.236,488.965,539.974,472.057 M495.33,627.276c-28.422,9.675-59.469,15.411-93.101,17.15
		c6.863-19.454,15.979-40.628,28.064-61.738c1.701-2.97,3.433-5.895,5.196-8.775C452.028,592.86,471.786,611.164,495.33,627.276
		 M382.541,726.02c0.804-6.707,2.897-21.391,7.583-40.749l0.001,0.072c59.745-1.262,109.118-13.722,149.85-32.662
		c40.733,18.94,90.106,31.4,149.85,32.662l0.002-0.066c4.684,19.354,6.777,34.037,7.58,40.743H382.541z M649.656,582.688
		c12.085,21.109,21.201,42.284,28.063,61.738c-33.631-1.739-64.678-7.476-93.101-17.15c23.545-16.112,43.303-34.416,59.842-53.363
		C646.224,576.794,647.956,579.719,649.656,582.688 M584.62,452.436c28.422-9.674,59.469-15.411,93.1-17.15
		c-6.862,19.454-15.979,40.628-28.063,61.738c-1.7,2.97-3.433,5.894-5.195,8.776C627.922,486.852,608.164,468.548,584.62,452.436"/>
</g>
</svg>
